<?xml version="1.0" standalone="no"?><!DOCTYPE svg PUBLIC "-//W3C//DTD SVG 1.1//EN" "http://www.w3.org/Graphics/SVG/1.1/DTD/svg11.dtd"><svg t="1581841374521" class="icon" viewBox="0 0 1024 1024" version="1.1" xmlns="http://www.w3.org/2000/svg" p-id="4239" xmlns:xlink="http://www.w3.org/1999/xlink" width="200" height="200"><defs><style type="text/css"></style></defs><path d="M757.333333 145.066667H268.8c-53.333333 0-96 42.666667-96 96v578.133333c0 53.333333 42.666667 96 96 96h296.533333c160 0 288-128 288-288V241.066667c0-53.333333-42.666667-96-96-96zM789.333333 627.2c0 123.733333-100.266667 224-224 224H268.8c-17.066667 0-32-14.933333-32-32V241.066667c0-17.066667 14.933333-32 32-32h488.533333c17.066667 0 32 14.933333 32 32v386.133333z" p-id="4240"></path><path d="M684.8 349.866667H362.666667c-17.066667 0-32 14.933333-32 32s14.933333 32 32 32h322.133333c17.066667 0 32-14.933333 32-32s-12.8-32-32-32zM546.133333 571.733333H362.666667c-17.066667 0-32 14.933333-32 32s14.933333 32 32 32h183.466666c17.066667 0 32-14.933333 32-32s-14.933333-32-32-32z" p-id="4241"></path></svg>