<?xml version="1.0" standalone="no"?><!DOCTYPE svg PUBLIC "-//W3C//DTD SVG 1.1//EN" "http://www.w3.org/Graphics/SVG/1.1/DTD/svg11.dtd"><svg t="1581841904803" class="icon" viewBox="0 0 1024 1024" version="1.1" xmlns="http://www.w3.org/2000/svg" p-id="7606" xmlns:xlink="http://www.w3.org/1999/xlink" width="200" height="200"><defs><style type="text/css"></style></defs><path d="M512 922.02c-4.13 0-8.26-1.45-11.58-4.38-3.08-2.72-76.33-67.61-150.77-159.16-43.94-54.03-79.01-106.06-104.23-154.64-32.16-61.92-48.46-118.7-48.46-168.76 0-97.49 29.45-180.61 85.18-240.37 56.57-60.67 136.06-92.73 229.87-92.73 94.61 0 174.21 31.49 230.18 91.07 55.52 59.09 84.87 142.79 84.87 242.03 0 64.52-29.57 142.25-87.88 231.04-5.31 8.08-16.16 10.33-24.24 5.02-8.08-5.31-10.33-16.16-5.02-24.24 54.5-82.98 82.13-154.25 82.13-211.82 0-183.87-107.3-298.09-280.04-298.09-170.12 0-280.04 117.01-280.04 298.09 0 101.69 78.6 219.77 144.53 300.92 55.39 68.17 111.41 122.36 135.21 144.53 16.14-15.62 46.99-45.89 80.17-80.66 6.67-7 17.75-7.26 24.75-0.58 7 6.67 7.26 17.75 0.58 24.75-48.84 51.2-92.74 92.79-93.17 93.2a17.534 17.534 0 0 1-12.04 4.78z" fill="#353535" p-id="7607"></path><path d="M643.46 788.83c-4.14 0-8.3-1.46-11.63-4.43-7.22-6.43-7.86-17.49-1.44-24.71 9.59-10.77 18.55-21.14 26.64-30.83 6.19-7.42 17.23-8.42 24.66-2.22 7.42 6.2 8.41 17.24 2.22 24.66-8.32 9.97-17.53 20.62-27.36 31.67a17.514 17.514 0 0 1-13.09 5.86zM512 569.04c-93.29 0-169.19-75.9-169.19-169.19S418.71 230.66 512 230.66s169.19 75.9 169.19 169.19S605.29 569.04 512 569.04z m0-303.37c-73.99 0-134.18 60.19-134.18 134.18S438.01 534.03 512 534.03c73.99 0 134.18-60.19 134.18-134.18S585.99 265.67 512 265.67z" fill="#353535" p-id="7608"></path></svg>