<?xml version="1.0" standalone="no"?><!DOCTYPE svg PUBLIC "-//W3C//DTD SVG 1.1//EN" "http://www.w3.org/Graphics/SVG/1.1/DTD/svg11.dtd"><svg t="1581841989226" class="icon" viewBox="0 0 1024 1024" version="1.1" xmlns="http://www.w3.org/2000/svg" p-id="8028" xmlns:xlink="http://www.w3.org/1999/xlink" width="200" height="200"><defs><style type="text/css"></style></defs><path d="M163.09403 958.892143c-18.260899 0-33.084513-14.787798-33.084513-33.083489 0-71.867818 84.868923-123.880425 234.158041-144.595212l0-10.021238c-101.281731-77.522608-101.281731-221.320665-101.281731-308.839951 0-144.391575 84.97023-230.613308 227.307006-230.613308l7.577582 0c142.373615 0 227.342822 86.191034 227.342822 230.613308 0 10.592242-0.101307 21.411659-0.399089 32.327266-0.531096 18.295692-15.418154 32.725332-33.977859 32.159444-18.267039-0.494257-32.659841-15.715937-32.19526-33.977859 0.297782-10.289344 0.399089-20.482497 0.399089-30.508851 0-109.116163-54.233182-164.44019-161.169703-164.44019l-7.577582 0c-106.905822 0-161.133887 55.323003-161.133887 164.44019 0 105.714693 6.649444 213.18231 85.99456 263.710101 9.526981 6.083555 15.31787 16.60519 15.31787 27.92398l0 56.545854c0 16.938788-12.768815 31.100322-29.610388 32.887015-132.87631 14.030551-204.547653 52.940746-204.547653 82.390475C196.183659 944.069553 181.360046 958.892143 163.09403 958.892143L163.09403 958.892143zM828.147892 958.892143c-18.296715 0-33.088606-14.787798-33.088606-33.083489 0-29.484521-71.666226-68.359924-204.511837-82.390475-16.842597-1.786693-29.646204-15.948227-29.646204-32.887015l0-56.545854c0-18.296715 14.791891-33.088606 33.088606-33.088606s33.084513 14.791891 33.084513 33.088606l0 27.227108c149.290141 20.714787 234.127342 72.726372 234.127342 144.595212C861.232404 944.069553 846.409814 958.892143 828.147892 958.892143L828.147892 958.892143zM599.119685 662.1006c-45.49824 0-79.577407-4.629437-80.43596-4.862751-16.311501-5.027503-26.106588-21.603017-22.663162-38.349423 3.438309-16.677844 19.023262-27.824719 36.027541-26.169009 82.489736 9.031701 208.516034 1.257643 230.588749-44.670385 7.870248-16.443507 27.591405-23.491017 44.13622-15.514345 16.479323 7.907087 23.425525 27.656897 15.519462 44.13622C787.779486 648.604214 676.839791 662.1006 599.119685 662.1006L599.119685 662.1006zM892.499525 627.490338c-18.296715 0-33.084513-14.786775-33.084513-33.084513L859.415013 478.766085l-44.205804-15.751752c-13.166881-4.694929-21.967314-17.171078-21.967314-31.165814 0-166.031431-133.573181-301.093523-297.78722-301.093523-164.178223 0-297.782104 135.097908-297.782104 301.093523 0 10.68741-5.164626 20.714787-13.863752 26.934442l-19.225877 13.696953 0 121.92591c0 18.297738-14.82259 33.084513-33.084513 33.084513-18.266016 0-33.088606-14.786775-33.088606-33.084513l0-138.964982c0-10.688433 5.15951-20.714787 13.863752-26.934442l19.618826-13.96506c9.002025-194.515159 168.611186-349.959463 363.561249-349.959463 192.83489 0 351.121939 152.101163 363.233791 343.673294l44.927235 16.014742c13.171997 4.700045 21.972431 17.176195 21.972431 31.17093l0 138.964982C925.588131 612.703563 910.800333 627.490338 892.499525 627.490338L892.499525 627.490338zM892.499525 627.490338" p-id="8029"></path></svg>