<?xml version="1.0" standalone="no"?><!DOCTYPE svg PUBLIC "-//W3C//DTD SVG 1.1//EN" "http://www.w3.org/Graphics/SVG/1.1/DTD/svg11.dtd"><svg t="1581843323612" class="icon" viewBox="0 0 1024 1024" version="1.1" xmlns="http://www.w3.org/2000/svg" p-id="11278" xmlns:xlink="http://www.w3.org/1999/xlink" width="200" height="200"><defs><style type="text/css"></style></defs><path d="M704.4 911.9h-125V646.2c0-3.3 0.1-6.5 0.1-9.3 0-1.8 0.1-3.9 0.1-5.9H446.8c0 2 0 4.1 0.1 5.9 0.1 2.8 0.1 5.9 0.1 9.3v265.6H321.9c-32.2 0-62-14-83.7-39.6-19.8-23.2-31.1-54.4-31.1-85.7V584.2h-16.7c-33 0-59.1-16.1-71.6-44.1l-0.1-0.1c-10-22.8-8.5-59.8 25.6-95.3l284.1-295.6c22.3-23.3 52.4-36.2 84.6-36.2 32.1 0 62.1 12.8 84.6 36.1L882 444.8c34 35.5 35.5 72.5 25.5 95.3l-0.1 0.2c-12.6 28-38.6 44-71.5 44h-16.7v202.4c0 31.3-11.3 62.5-31.1 85.7-21.8 25.4-51.5 39.5-83.7 39.5z m-75-50h75c40 0 64.8-39.1 64.8-75.3V534.2h66.7c13.2 0 21.4-4.6 25.9-14.4 0.9-2 6.3-17.5-15.8-40.5L561.7 183.8c-12.9-13.4-30.2-20.8-48.5-20.8-18.4 0-35.7 7.4-48.5 20.8L180.5 479.4c-22.3 23.1-16.7 38.6-15.9 40.5 4.3 9.7 12.8 14.3 25.9 14.3h66.7v252.4c0 36.2 24.8 75.3 64.8 75.3h75.1V646.2c0-2.9-0.1-5.6-0.1-8.3-0.3-15.6-0.6-31.7 11.8-44.3 12.3-12.6 30-12.6 35.8-12.6h137.5c5.8 0 23.5 0 35.8 12.6 12.4 12.6 12.1 28.7 11.8 44.3-0.1 2.7-0.1 5.5-0.1 8.4v215.6z" p-id="11279"></path></svg>